<svg xmlns="http://www.w3.org/2000/svg"  viewBox="0 0 48 48" width="480px" height="480px" baseProfile="basic"><polygon fill="#37474f" points="24,3 39,9 45,24 39,39 24,45 9,39 3,24 9,9"/><polygon fill="#78909c" points="9.462,24 13.616,13.616 24,9.462 34.384,13.616 38.538,24"/><path fill="#fff" d="M10.539,37.461L5.154,24l5.385-13.461L24,5.154l13.461,5.384L42.846,24l-5.385,13.461L24,42.846	L10.539,37.461z M24,40.691l11.922-4.769L40.691,24l-4.77-11.923L24,7.309l-11.922,4.769L7.309,24l4.77,11.923L24,40.691z"/><polygon fill="#37474f" points="18,16 20,18 20,24 28,24 28,18 30,16 31,30 29,30 24,25 19,30 17,30"/><path fill="#fafafa" d="M30,16v12l-6-6l-6,6V16h-4v16.5h3.32c1.075,0,2.104-0.432,2.856-1.2L24,27.4l3.824,3.9	c0.752,0.767,1.782,1.2,2.856,1.2H34V16H30z"/></svg>